<svg width="360" height="360" viewBox="0 0 360 360" fill="none" xmlns="http://www.w3.org/2000/svg">
  <path fill-rule="evenodd" clip-rule="evenodd"
    d="M180 360C279.411 360 360 279.411 360 180C360 169.441 359.091 159.095 357.347 149.035L191.826 207.638C183.656 210.53 174.705 210.289 166.703 206.961L100.679 179.5C85.3808 173.137 78.1375 155.577 84.5004 140.279C90.8633 124.981 108.423 117.738 123.721 124.1L180.866 147.869L337.324 92.4739C306.569 37.3104 247.642 0 180 0C80.5887 0 0 80.5887 0 180C0 279.411 80.5887 360 180 360Z"
    fill="#2D3A3E" />
</svg>