<svg width="24" height="24" viewBox="0 0 24 24" fill="none" xmlns="http://www.w3.org/2000/svg">
  <path fill-rule="evenodd" clip-rule="evenodd"
    d="M7 7C7 4.23858 9.23857 2 12 2C14.7614 2 17 4.23857 17 7C17 9.76143 14.7614 12 12 12C9.23857 12 7 9.76143 7 7ZM12 4C10.3431 4 9 5.34314 9 7C9 8.65686 10.3431 10 12 10C13.6568 10 15 8.65685 15 7C15 5.34315 13.6568 4 12 4ZM4.46444 15.4645C5.40214 14.5267 6.67393 14 8 14H16C17.3261 14 18.5978 14.5267 19.5355 15.4644C19.5355 15.4645 19.5355 15.4645 19.5355 15.4645C19.5355 15.4645 19.5355 15.4645 19.5356 15.4645C20.4733 16.4022 21 17.6739 21 19V21C21 21.5523 20.5523 22 20 22C19.4477 22 19 21.5523 19 21V19C19 18.2043 18.6839 17.4413 18.1213 16.8788L18.1212 16.8787C17.5587 16.3161 16.7957 16 16 16H8C7.20433 16 6.4413 16.3161 5.8787 16.8787L5.87866 16.8787C5.31608 17.4413 5 18.2043 5 19V21C5 21.5523 4.55228 22 4 22C3.44772 22 3 21.5523 3 21V19C3 17.6739 3.52677 16.4022 4.46444 15.4645Z"
    fill="black" />
</svg>
  