<svg width="24" height="24" viewBox="0 0 24 24" fill="none" xmlns="http://www.w3.org/2000/svg">
  <path fill-rule="evenodd" clip-rule="evenodd"
    d="M11.0004 2C11.0004 1.44772 11.4481 1 12.0004 1C13.4449 1 14.8754 1.28452 16.2099 1.83732C17.5445 2.39012 18.7571 3.20038 19.7786 4.22182L19.0715 4.92893L19.7786 4.22182C20.8001 5.2433 21.6102 6.45593 22.1631 7.79045L22.1631 7.79052C22.7158 9.12506 23.0004 10.5555 23.0004 12C23.0004 12.5523 22.5527 13 22.0004 13H12.0004C11.4481 13 11.0004 12.5523 11.0004 12V2ZM13.0004 3.05573V11H20.9447C20.8509 10.1614 20.6395 9.33853 20.3153 8.55589C19.863 7.46389 19.2001 6.47174 18.3644 5.63604C17.5287 4.80032 16.5365 4.13738 15.4445 3.68508L15.4445 3.68508C14.6619 3.3609 13.839 3.14949 13.0004 3.05573ZM8.91694 2.43006C9.13783 2.93625 8.90655 3.52567 8.40036 3.74655C7.05296 4.33453 5.8701 5.24364 4.9552 6.39438L4.9552 6.39438C4.04031 7.54511 3.42124 8.90245 3.1521 10.3478L2.21421 10.1731L3.1521 10.3478C2.88297 11.793 2.97197 13.2822 3.41133 14.6851C3.8507 16.0881 4.62704 17.362 5.67248 18.3956L4.96943 19.1067L5.67248 18.3956C6.71793 19.4291 8.00065 20.1909 9.40847 20.6141L9.40853 20.6142C10.8163 21.0375 12.3064 21.1095 13.7485 20.8239C15.1907 20.5382 16.5409 19.9037 17.6811 18.9757C18.8213 18.0477 19.7168 16.8546 20.2894 15.5005C20.5045 14.9919 21.0912 14.7539 21.5999 14.969C22.1085 15.1841 22.3465 15.7708 22.1314 16.2795C21.4316 17.9344 20.3371 19.3927 18.9435 20.5269C17.5499 21.6611 15.8997 22.4366 14.1371 22.7857C12.3746 23.1349 10.5533 23.0469 8.83263 22.5295C7.11191 22.0121 5.54413 21.0811 4.26638 19.8178C2.9886 18.5546 2.03974 16.9975 1.50274 15.2829C0.965743 13.5682 0.856964 11.748 1.1859 9.98163L2.169 10.1647L1.1859 9.98163C1.51484 8.21515 2.27148 6.55617 3.38969 5.14972C4.5079 3.74326 5.95362 2.63213 7.60045 1.91349C8.10664 1.6926 8.69605 1.92388 8.91694 2.43006Z"
    fill="black" />
</svg>
  