<svg width="24" height="24" viewBox="0 0 24 24" fill="none" xmlns="http://www.w3.org/2000/svg">
  <path fill-rule="evenodd" clip-rule="evenodd"
    d="M4.7218 13C5.26994 13 5.71429 13.4477 5.71429 14V21C5.71429 21.5523 5.26994 22 4.7218 22C4.17367 22 3.72932 21.5523 3.72932 21V14C3.72932 13.4477 4.17367 13 4.7218 13Z"
    fill="black" />
  <path fill-rule="evenodd" clip-rule="evenodd"
    d="M4.7218 2C5.26994 2 5.71429 2.44772 5.71429 3V10C5.71429 10.5523 5.26994 11 4.7218 11C4.17367 11 3.72932 10.5523 3.72932 10V3C3.72932 2.44772 4.17367 2 4.7218 2Z"
    fill="black" />
  <path fill-rule="evenodd" clip-rule="evenodd"
    d="M12 11C12.5481 11 12.9925 11.4477 12.9925 12V21C12.9925 21.5523 12.5481 22 12 22C11.4519 22 11.0075 21.5523 11.0075 21V12C11.0075 11.4477 11.4519 11 12 11Z"
    fill="black" />
  <path fill-rule="evenodd" clip-rule="evenodd"
    d="M12 2C12.5481 2 12.9925 2.44772 12.9925 3V8C12.9925 8.55228 12.5481 9 12 9C11.4519 9 11.0075 8.55228 11.0075 8V3C11.0075 2.44772 11.4519 2 12 2Z"
    fill="black" />
  <path fill-rule="evenodd" clip-rule="evenodd"
    d="M19.2782 15C19.8263 15 20.2707 15.4477 20.2707 16V21C20.2707 21.5523 19.8263 22 19.2782 22C18.7301 22 18.2857 21.5523 18.2857 21V16C18.2857 15.4477 18.7301 15 19.2782 15Z"
    fill="black" />
  <path fill-rule="evenodd" clip-rule="evenodd"
    d="M19.2782 2C19.8263 2 20.2707 2.44772 20.2707 3V12C20.2707 12.5523 19.8263 13 19.2782 13C18.7301 13 18.2857 12.5523 18.2857 12V3C18.2857 2.44772 18.7301 2 19.2782 2Z"
    fill="black" />
  <path fill-rule="evenodd" clip-rule="evenodd"
    d="M1 14C1 13.4477 1.44435 13 1.99248 13H7.45113C7.99926 13 8.44361 13.4477 8.44361 14C8.44361 14.5523 7.99926 15 7.45113 15H1.99248C1.44435 15 1 14.5523 1 14Z"
    fill="black" />
  <path fill-rule="evenodd" clip-rule="evenodd"
    d="M8.2782 8C8.2782 7.44772 8.72254 7 9.27068 7H14.7293C15.2775 7 15.7218 7.44772 15.7218 8C15.7218 8.55228 15.2775 9 14.7293 9H9.27068C8.72254 9 8.2782 8.55228 8.2782 8Z"
    fill="black" />
  <path fill-rule="evenodd" clip-rule="evenodd"
    d="M15.5564 16C15.5564 15.4477 16.0007 15 16.5489 15H22.0075C22.5557 15 23 15.4477 23 16C23 16.5523 22.5557 17 22.0075 17H16.5489C16.0007 17 15.5564 16.5523 15.5564 16Z"
    fill="black" />
</svg>
  