<svg width="24" height="24" viewBox="0 0 24 24" fill="none" xmlns="http://www.w3.org/2000/svg">
  <path fill-rule="evenodd" clip-rule="evenodd"
    d="M10.4475 1.1915C10.7725 0.936167 11.2275 0.936167 11.5525 1.1915L19.6525 7.55513C19.8718 7.72737 20 7.99219 20 8.27273V18.2727C20 18.996 19.7155 19.6897 19.2092 20.2012C18.7028 20.7127 18.0161 21 17.3 21H4.7C3.98393 21 3.29716 20.7127 2.7908 20.2012C2.28447 19.6897 2 18.996 2 18.2727V8.27273C2 7.99219 2.12823 7.72737 2.34745 7.55513L10.4475 1.1915ZM9.2 19.1818H12.8V11.9091H9.2V19.1818ZM14.6 19.1818V11C14.6 10.4979 14.1971 10.0909 13.7 10.0909H8.3C7.80294 10.0909 7.4 10.4979 7.4 11V19.1818H4.7C4.46129 19.1818 4.23239 19.086 4.06363 18.9156C3.89482 18.745 3.8 18.5138 3.8 18.2727V8.71735L11 3.06078L18.2 8.71735V18.2727C18.2 18.5138 18.1052 18.745 17.9364 18.9155C17.7676 19.0861 17.5387 19.1818 17.3 19.1818H14.6Z"
    fill="black" />
</svg>
  