<svg width="24" height="24" viewBox="0 0 24 24" fill="none" xmlns="http://www.w3.org/2000/svg">
  <path fill-rule="evenodd" clip-rule="evenodd"
    d="M2 6C2 5.44772 2.44772 5 3 5H21C21.5523 5 22 5.44772 22 6C22 6.55228 21.5523 7 21 7H3C2.44772 7 2 6.55228 2 6Z"
    fill="black" />
  <path fill-rule="evenodd" clip-rule="evenodd"
    d="M10 3C9.73478 3 9.48043 3.10536 9.29291 3.29289L9.29289 3.29291C9.10536 3.48043 9 3.73478 9 4V6C9 6.55228 8.55228 7 8 7C7.44772 7 7 6.55228 7 6V4C7 3.20437 7.31606 2.4413 7.87867 1.87869C7.87868 1.87869 7.87869 1.87868 7.87869 1.87867M7.87869 1.87867C8.4413 1.31606 9.20437 1 10 1H14C14.7956 1 15.5587 1.31607 16.1213 1.87865C16.684 2.44128 17 3.20437 17 4V6C17 6.55228 16.5523 7 16 7C15.4477 7 15 6.55228 15 6V4C15 3.73477 14.8946 3.48044 14.7071 3.29292L14.7071 3.29292C14.5195 3.10534 14.2652 3 14 3H10M5 5C5.55228 5 6 5.44772 6 6V20C6 20.2652 6.10534 20.5195 6.29292 20.7071L5.58648 21.4135L6.29293 20.7071C6.48044 20.8946 6.73477 21 7 21H17C17.2652 21 17.5195 20.8947 17.7071 20.7071C17.8947 20.5195 18 20.2652 18 20V6C18 5.44772 18.4477 5 19 5C19.5523 5 20 5.44772 20 6V20C20 20.7956 19.6839 21.5587 19.1213 22.1213C18.5587 22.6839 17.7956 23 17 23H7C6.20437 23 5.44128 22.684 4.87866 22.1213C4.31608 21.5587 4 20.7956 4 20V6C4 5.44772 4.44772 5 5 5Z"
    fill="black" />
  <path fill-rule="evenodd" clip-rule="evenodd"
    d="M10 10C10.5523 10 11 10.4477 11 11V17C11 17.5523 10.5523 18 10 18C9.44772 18 9 17.5523 9 17V11C9 10.4477 9.44772 10 10 10Z"
    fill="black" />
  <path fill-rule="evenodd" clip-rule="evenodd"
    d="M14 10C14.5523 10 15 10.4477 15 11V17C15 17.5523 14.5523 18 14 18C13.4477 18 13 17.5523 13 17V11C13 10.4477 13.4477 10 14 10Z"
    fill="black" />
</svg>
  